<?xml version="1.0" encoding="UTF-8"?>
<svg width="1200" height="630" version="1.1" viewBox="0 0 317.5 166.69" xml:space="preserve" xmlns="http://www.w3.org/2000/svg"><defs><clipPath id="clip0_289_155"><rect width="139" height="180" fill="#fff"/></clipPath></defs><rect width="317.5" height="166.69" fill="#fff" stroke-width=".94"/><g transform="matrix(.61819 0 0 .61819 23.817 27.706)" fill="none"><g clip-path="url(#clip0_289_155)" clip-rule="evenodd" fill="#262426" fill-rule="evenodd"><path d="m34.794 21.245 34.548 20.129 33.468-19.533 0.105 40.659 3.937-2.7432v-38.189l32.148 20.417-0.112 78.125-33.706 18.838-0.035-40.876-35.812 20.831v41.375l-34.696 19.729-34.64-20.108 0.12632-38.73 35.194 20.179 0.0491-4.455-33.271-19.288 32.738-18.06z"/><path d="m101.57 104.2s0.029-7e-3 0.043 0 0.021 0.021 0.021 0.035l0.294 32.99v-32.92l-28.625 16.474 28.331-16.586 0.042 33.032-28.436-16.446"/><path d="m69.349 37.066-31.902-18.586 31.882-18.481 31.882 18.474-31.868 18.6z"/><path d="m106.96 21.708 32.036 20.277-32.148 17.793 0.105-38.07z"/><path d="m34.878 99.44 34.45 19.47-33.952 17.976-33.278-19.281z"/></g></g><g fill="#262426" stroke-width=".26458" aria-label="Purdue
Hackers
Webring"><path d="m139.27 52.888v-5.7492h6.463q2.1222 0 3.3183-1.0611 1.2154-1.0611 1.2154-3.1254v-0.03859q0-2.0836-1.2154-3.1254-1.1961-1.0611-3.3183-1.0611h-6.463v-5.8456h8.3151q3.2026 0 5.537 1.254 2.3537 1.2347 3.627 3.4919 1.2926 2.2379 1.2926 5.2669v0.03858q0 3.0482-1.2926 5.2862-1.2733 2.2379-3.627 3.4534-2.3344 1.2154-5.537 1.2154zm-3.8778 7.8328v-27.839h7.717v27.839zm32.392 0.46302q-2.3344 0-3.9743-0.94533-1.6206-0.96463-2.4694-2.7588-0.82958-1.7942-0.82958-4.3215v-13.621h7.4469v12q0 1.6784 0.79099 2.6431 0.791 0.96463 2.3537 0.96463 0.75241 0 1.3505-0.2508 0.59807-0.2701 1.0225-0.75241 0.42444-0.50161 0.63666-1.1768 0.23151-0.67524 0.23151-1.4662v-11.961h7.4469v21.183h-7.4469v-3.8392h-0.15434q-0.5209 1.3698-1.4084 2.3344-0.88745 0.96463-2.1415 1.4662-1.254 0.5016-2.8553 0.5016zm17.132-0.46302v-21.183h7.4469v3.7813h0.15434q0.40514-2.045 1.6013-3.1254 1.2154-1.0997 3.1061-1.0997 0.5016 0 0.96462 0.07717 0.48232 0.07717 0.88746 0.21222v6.3087q-0.46302-0.19292-1.0418-0.28939-0.57877-0.11576-1.1961-0.11576-1.4662 0-2.4694 0.50161-1.0032 0.5016-1.5048 1.5048-0.50161 1.0032-0.50161 2.508v10.92zm23.421 0.46302q-2.6238 0-4.4952-1.2926-1.8714-1.3119-2.8553-3.7813t-0.98392-5.9807v-0.01929q0-3.5305 0.98392-5.9807 0.98392-2.4694 2.8553-3.7428 1.8714-1.2926 4.5337-1.2926 1.5048 0 2.7395 0.50161 1.254 0.5016 2.1608 1.4662 0.92605 0.94533 1.4276 2.2765h0.15434v-10.457h7.4469v27.839h-7.4469v-3.627h-0.15434q-0.48231 1.2926-1.4084 2.1993-0.90675 0.90675-2.1608 1.4084-1.254 0.48231-2.7974 0.48231zm2.8746-6.0386q1.0997 0 1.9293-0.59807 0.82958-0.59807 1.2733-1.717 0.44373-1.119 0.44373-2.6817v-0.01929q0-1.582-0.46302-2.701-0.44373-1.119-1.2733-1.717-0.81028-0.59807-1.91-0.59807-1.0997 0-1.9292 0.59807-0.81029 0.59807-1.2733 1.717-0.44372 1.119-0.44372 2.6817v0.01929q0 1.5627 0.44372 2.6817 0.44373 1.119 1.2733 1.7363 0.82958 0.59807 1.9292 0.59807zm21.415 6.0386q-2.3344 0-3.9743-0.94533-1.6206-0.96463-2.4694-2.7588-0.82958-1.7942-0.82958-4.3215v-13.621h7.4469v12q0 1.6784 0.791 2.6431 0.79099 0.96463 2.3537 0.96463 0.75241 0 1.3505-0.2508 0.59807-0.2701 1.0225-0.75241 0.42443-0.50161 0.63665-1.1768 0.23151-0.67524 0.23151-1.4662v-11.961h7.4469v21.183h-7.4469v-3.8392h-0.15434q-0.5209 1.3698-1.4084 2.3344-0.88746 0.96463-2.1415 1.4662-1.254 0.5016-2.8553 0.5016zm27.473 0q-3.3955 0-5.8456-1.3312-2.4502-1.3312-3.7813-3.8006-1.3119-2.4887-1.3119-5.9035v-0.01929q0-3.4341 1.3119-5.9035t3.7042-3.8006q2.4116-1.3312 5.672-1.3312t5.6527 1.3119q2.3923 1.2926 3.7042 3.6849 1.3119 2.373 1.3119 5.5948v2.1415h-17.711v-4.3022h14.238l-3.4341 4.0321v-2.8746q0-1.3891-0.44373-2.373-0.44372-0.98392-1.254-1.5048-0.79099-0.5209-1.8714-0.5209-1.0804 0-1.8907 0.5209-0.81029 0.5209-1.254 1.5048t-0.44373 2.373v2.9132q0 1.3698 0.44373 2.3537 0.46302 0.98392 1.3119 1.5048 0.84888 0.5209 2.0257 0.5209 1.0611 0 1.7942-0.32797 0.73311-0.34726 1.1382-0.81029 0.42444-0.46302 0.5402-0.82958l0.0386-0.07717h6.6559l-0.0579 0.2508q-0.23151 1.0611-0.86817 2.2765-0.63665 1.1961-1.8328 2.2765-1.1768 1.0804-3.0289 1.7749-1.8521 0.67524-4.5144 0.67524z"/><path d="m135.4 93.656v-27.839h7.717v10.746h10.341v-10.746h7.717v27.839h-7.717v-10.958h-10.341v10.958zm35.411 0.28939q-2.1415 0-3.762-0.82958-1.6013-0.84887-2.508-2.2958-0.90675-1.4469-0.90675-3.2797v-0.01929q0-2.045 1.0032-3.4534 1.0225-1.4084 2.9518-2.2186 1.9292-0.81029 4.7074-1.0032l8.5852-0.55948v4.2251l-7.3505 0.50161q-1.3312 0.07717-1.9871 0.59807-0.63665 0.5209-0.63665 1.3891v0.01929q0 0.88746 0.69453 1.3698 0.71383 0.48231 1.8714 0.48231 1.0225 0 1.7749-0.34727 0.7717-0.36656 1.2154-0.98392t0.44373-1.3891v-6.5402q0-1.0225-0.65595-1.6013-0.65594-0.59807-1.9485-0.59807t-2.0257 0.50161q-0.71382 0.50161-0.86816 1.2154l-0.0386 0.19292h-6.6752l0.0193-0.23151q0.17363-2.1415 1.3891-3.7235 1.2154-1.582 3.3762-2.4502 2.1801-0.88746 5.2283-0.88746 2.8939 0 5.0546 0.90675 2.1801 0.90675 3.3762 2.5273 1.2154 1.6206 1.2154 3.762v14.431h-7.4469v-2.9325h-0.15434q-0.57878 1.0225-1.4662 1.7556-0.86817 0.71382-1.9871 1.0997-1.119 0.36656-2.4887 0.36656zm27.01 0.17363q-3.3955 0-5.8456-1.3312-2.4502-1.3312-3.7813-3.8006-1.3119-2.4887-1.3119-5.9421v-0.01929q0-3.4148 1.3119-5.8842 1.3312-2.4694 3.762-3.7813 2.4502-1.3312 5.807-1.3312 3.0482 0 5.3247 1.119 2.2958 1.0997 3.5691 3.1061 1.2733 1.9871 1.2926 4.6495l0.0193 0.11576h-6.8103l-0.0193-0.19292q-0.15434-1.4469-1.0225-2.3344-0.84887-0.88746-2.2186-0.88746-1.0997 0-1.8714 0.63665-0.7717 0.63665-1.1768 1.8521-0.40514 1.2154-0.40514 2.9518v0.01929q0 1.7749 0.38585 3.0096 0.40514 1.2154 1.1768 1.8521 0.79099 0.61736 1.8907 0.61736 1.4084 0 2.2379-0.86816t1.0032-2.373l0.0193-0.17363h6.8103v0.11576q-0.0386 2.5273-1.254 4.5337-1.2154 2.0064-3.4726 3.1833-2.2572 1.1576-5.4212 1.1576zm12.675-0.46302v-27.839h7.4469v27.839zm13.273 0-5.3826-8.7781 4.6109-5.9228 9.3376 14.701zm-6.463-5.4791v-7.8906h0.7717l5.537-7.8135h8.2379l-9.5498 12h-2.045zm25.37 5.9421q-3.3955 0-5.8456-1.3312-2.4502-1.3312-3.7813-3.8006-1.3119-2.4887-1.3119-5.9035v-0.01929q0-3.4341 1.3119-5.9035t3.7042-3.8006q2.4116-1.3312 5.672-1.3312t5.6527 1.3119q2.3923 1.2926 3.7042 3.6849 1.3119 2.373 1.3119 5.5948v2.1415h-17.711v-4.3022h14.238l-3.4341 4.0321v-2.8746q0-1.3891-0.44373-2.373t-1.254-1.5048q-0.79099-0.5209-1.8714-0.5209-1.0804 0-1.8907 0.5209-0.81029 0.5209-1.254 1.5048t-0.44373 2.373v2.9132q0 1.3698 0.44373 2.3537 0.46302 0.98392 1.3119 1.5048 0.84887 0.5209 2.0257 0.5209 1.0611 0 1.7942-0.32797 0.73312-0.34727 1.1383-0.81029 0.42444-0.46302 0.54019-0.82958l0.0386-0.07717h6.6559l-0.0579 0.2508q-0.23151 1.0611-0.86816 2.2765-0.63665 1.1961-1.8328 2.2765-1.1768 1.0804-3.0289 1.7749-1.8521 0.67524-4.5144 0.67524zm12.945-0.46302v-21.183h7.4469v3.7813h0.15434q0.40514-2.045 1.6013-3.1254 1.2154-1.0997 3.1061-1.0997 0.5016 0 0.96462 0.07717 0.48232 0.07717 0.88746 0.21222v6.3087q-0.46302-0.19292-1.0418-0.28939-0.57877-0.11576-1.1961-0.11576-1.4662 0-2.4694 0.50161t-1.5048 1.5048q-0.5016 1.0032-0.5016 2.508v10.92zm25.717 0.46302q-3.2604 0-5.4984-0.88746-2.2186-0.88746-3.4534-2.4502-1.2347-1.582-1.4855-3.6849l-0.0193-0.17363h7.2154l0.0386 0.17363q0.25081 0.98392 1.0225 1.5434 0.79099 0.54019 2.18 0.54019 0.82958 0 1.4276-0.17363 0.59807-0.19292 0.90675-0.54019 0.32797-0.34726 0.32797-0.81029v-0.01929q0-0.63665-0.55948-1.0225-0.54019-0.38585-1.8907-0.65595l-3.8006-0.71382q-2.0836-0.40514-3.5112-1.2347-1.4084-0.84887-2.1415-2.1222-0.71382-1.2733-0.71382-2.8939v-0.01929q0-2.1801 1.1576-3.7235 1.1768-1.5434 3.3569-2.373 2.1801-0.84887 5.1704-0.84887 3.2026 0 5.344 0.96463 2.1608 0.96463 3.2604 2.5659 1.0997 1.582 1.0997 3.4919v0.15434h-6.7717l-0.0193-0.17363q-0.0965-0.82958-0.84887-1.4469-0.73312-0.63665-2.0643-0.63665-0.75241 0-1.3312 0.19293-0.57877 0.19292-0.90674 0.55948-0.30868 0.34726-0.30868 0.84887v0.01929q0 0.40514 0.21221 0.71382 0.23151 0.30868 0.791 0.54019 0.55948 0.23151 1.5434 0.42444l3.7813 0.71382q2.2765 0.44373 3.7234 1.1961 1.4469 0.75241 2.1222 1.8907 0.69453 1.1383 0.69453 2.7395v0.01929q0 2.2379-1.2733 3.8778-1.254 1.6399-3.5112 2.5466-2.2572 0.88746-5.2669 0.88746z"/><path d="m141.4 126.59-7.2154-27.839h7.9485l3.4534 17.614h0.15434l4.1865-17.614h6.3858l4.1865 17.614h0.15434l3.4534-17.614h7.9485l-7.2154 27.839h-7.6206l-4.0321-15.723h-0.13505l-4.0321 15.723zm40.881 0.46302q-3.3955 0-5.8456-1.3312-2.4502-1.3312-3.7813-3.8006-1.3119-2.4887-1.3119-5.9035v-0.0193q0-3.4341 1.3119-5.9035 1.3119-2.4694 3.7042-3.8006 2.4116-1.3312 5.672-1.3312 3.2604 0 5.6527 1.3119 2.3923 1.2926 3.7042 3.6849 1.3119 2.373 1.3119 5.5948v2.1415h-17.711v-4.3022h14.238l-3.4341 4.0321v-2.8746q0-1.3891-0.44373-2.373t-1.254-1.5048q-0.791-0.5209-1.8714-0.5209t-1.8907 0.5209q-0.81028 0.5209-1.254 1.5048t-0.44373 2.373v2.9132q0 1.3698 0.44373 2.3537 0.46302 0.98392 1.3119 1.5048 0.84887 0.52089 2.0257 0.52089 1.0611 0 1.7942-0.32797 0.73312-0.34726 1.1383-0.81029 0.42444-0.46302 0.54019-0.82957l0.0386-0.0772h6.6559l-0.0579 0.2508q-0.23151 1.0611-0.86816 2.2765-0.63666 1.1961-1.8328 2.2765-1.1768 1.0804-3.0289 1.7749-1.8521 0.67524-4.5144 0.67524zm27.01 0q-1.5241 0-2.7974-0.48232-1.254-0.5016-2.1608-1.4084t-1.4084-2.1994h-0.15434v3.627h-7.4469v-27.839h7.4469v10.457h0.15434q0.5209-1.3312 1.4276-2.2765 0.90675-0.96463 2.1415-1.4662 1.254-0.50161 2.7588-0.50161 2.6817 0 4.5338 1.2926 1.8714 1.2733 2.8553 3.7428 0.98392 2.4502 0.98392 5.9807v0.0193q0 3.5112-0.98392 5.9807-0.98392 2.4694-2.8553 3.7813-1.8521 1.2926-4.4952 1.2926zm-2.8553-6.0386q1.0997 0 1.91-0.59807 0.82958-0.61736 1.2733-1.7363t0.44373-2.6817v-0.0193q0-1.5627-0.46302-2.6817-0.44373-1.119-1.254-1.717-0.81028-0.59807-1.91-0.59807-1.0997 0-1.9292 0.59807-0.81028 0.59807-1.2733 1.717-0.46302 1.119-0.46302 2.701v0.0193q0 1.5627 0.46302 2.6817 0.46303 1.119 1.2733 1.717 0.81029 0.59807 1.9292 0.59807zm13.717 5.5755v-21.183h7.4469v3.7813h0.15434q0.40515-2.045 1.6013-3.1254 1.2154-1.0997 3.1061-1.0997 0.50161 0 0.96463 0.0772 0.48231 0.0772 0.88745 0.21222v6.3087q-0.46302-0.19293-1.0418-0.28939-0.57878-0.11576-1.1961-0.11576-1.4662 0-2.4694 0.50161-1.0032 0.5016-1.5048 1.5048-0.50161 1.0032-0.50161 2.508v10.92zm16.148 0v-21.183h7.4469v21.183zm3.7234-23.228q-1.582 0-2.6624-1.0611-1.0804-1.0804-1.0804-2.5466 0-1.4662 1.0804-2.5273 1.0804-1.0611 2.6624-1.0611 1.582 0 2.6431 1.0611 1.0804 1.0611 1.0804 2.5273 0 1.4662-1.0804 2.5466-1.0611 1.0611-2.6431 1.0611zm6.8681 23.228v-21.183h7.4469v3.8585h0.15435q0.79099-2.0836 2.3923-3.1833 1.6206-1.119 4.0128-1.119 3.492 0 5.3826 2.1222 1.8907 2.1029 1.8907 5.8842v13.621h-7.4469v-12q0-1.6784-0.79099-2.6431-0.791-0.96463-2.373-0.96463-0.98392 0-1.717 0.48231-0.71382 0.46302-1.119 1.2926-0.38586 0.81029-0.38586 1.8907v11.942zm34.881 7.2154q-3.1254 0-5.4405-0.84887-2.3151-0.82958-3.6656-2.2765-1.3312-1.4276-1.5434-3.2218l-0.0193-0.17363h7.1768l0.0386 0.0965q0.21221 0.50161 1.0804 1.0225 0.88745 0.54019 2.4309 0.54019 1.8135 0 2.701-0.79099 0.88746-0.7717 0.88746-2.0257v-3.6463h-0.13505q-0.50161 1.0611-1.4276 1.8328-0.90675 0.7717-2.18 1.1961-1.254 0.40515-2.7781 0.40515-2.6431 0-4.4952-1.1961t-2.836-3.4726q-0.96463-2.2765-0.96463-5.5562v-0.0193q0-3.4534 0.98392-5.8263 1.0032-2.3923 2.8553-3.627 1.8714-1.254 4.553-1.254 1.4855 0 2.7202 0.50161 1.2347 0.48231 2.1222 1.4084 0.90675 0.90675 1.4276 2.1994h0.15434v-3.6656h7.4662v20.585q0 2.2958-1.3505 4.0514t-3.8585 2.7588q-2.4887 1.0032-5.9035 1.0032zm0.0386-12.945q1.0997 0 1.9293-0.57877 0.82958-0.59807 1.2733-1.6977 0.44373-1.0997 0.44373-2.6431v-0.0193q0-1.5627-0.46302-2.6624-0.44373-1.0997-1.2733-1.6784-0.81028-0.59807-1.91-0.59807-1.0997 0-1.9292 0.59807-0.81029 0.57877-1.2733 1.6784-0.44372 1.0804-0.44372 2.6431v0.0193q0 1.5241 0.44372 2.6431 0.44373 1.119 1.2733 1.717 0.82958 0.57877 1.9292 0.57877z"/></g></svg>
