<?xml version="1.0" encoding="UTF-8" standalone="no"?>
<!DOCTYPE svg PUBLIC "-//W3C//DTD SVG 1.1//EN" "http://www.w3.org/Graphics/SVG/1.1/DTD/svg11.dtd">
<svg width="100%" height="100%" viewBox="0 0 2160 2160" version="1.1" xmlns="http://www.w3.org/2000/svg" xmlns:xlink="http://www.w3.org/1999/xlink" xml:space="preserve" xmlns:serif="http://www.serif.com/" style="fill-rule:evenodd;clip-rule:evenodd;stroke-linejoin:round;stroke-miterlimit:2;">
    <path d="M720.627,362.058L1080,571.597L1428.11,368.313L1429.15,773.832L1452.87,774.118L1454.11,357.11L1802.6,554.109L1804.96,1391.62L1454.43,1587.65L1454.11,1161.75L1080,1379.46L1080,1809.54L718.917,2015.02L358.458,1805.69L359.775,1402.62L726.188,1612.76L737.039,1591.83L373.201,1380.37L721.069,1177.37L720.627,362.058Z" style="fill:rgb(253,211,74);"/>
    <path id="Main" d="M720.627,362.058L721.069,1177.37L373.201,1380.37L737.039,1591.83L726.188,1612.76L359.775,1402.62L358.458,1805.69L718.917,2015.02L1080,1809.54L1080,1379.46L1454.11,1161.75L1454.43,1587.65L1804.96,1391.62L1802.6,554.109L1454.11,357.11L1452.87,774.118L1429.15,773.832L1428.11,368.313L1080,571.597L720.627,362.058Z" style="fill:none;"/>
    <g id="Bottom-Triangle" serif:id="Bottom Triangle" transform="matrix(1,0,0,1,-24,39)">
        <path d="M1115.06,1359.64L1454.9,1556.32M1453.86,1161.32C1454.01,1161.23 1454.2,1161.23 1454.36,1161.32C1454.51,1161.4 1454.61,1161.57 1454.61,1161.75L1454.9,1556.32L1453.61,1162.62L1115.06,1359.64L1454.36,1161.32L1454.9,1556.32L1115.06,1359.64" style="fill:rgb(253,211,74);"/>
    </g>
    <path d="M1080,546.597L731.583,343.446L1079.85,141.47L1428.11,343.313L1080,546.597Z" style="fill:rgb(253,211,74);"/>
</svg>
